<svg xmlns="http://www.w3.org/2000/svg" viewBox="0 0 400 400" role="img" aria-label="Memory Match cover — 4x4 cards, two revealed">
	<defs>
		<linearGradient id="mmbg" x1="0" y1="0" x2="1" y2="1">
			<stop offset="0%" stop-color="#3a121d"/>
			<stop offset="100%" stop-color="#0c0c10"/>
		</linearGradient>
	</defs>
	<rect width="400" height="400" fill="url(#mmbg)"/>
	<g transform="translate(60 50)">
		<g fill="#241217" stroke="#7f1d1d" stroke-width="1">
			<rect x="0"   y="0"   width="60" height="60" rx="6"/>
			<rect x="68"  y="0"   width="60" height="60" rx="6"/>
			<rect x="136" y="0"   width="60" height="60" rx="6"/>
			<rect x="204" y="0"   width="60" height="60" rx="6"/>
			<rect x="0"   y="68"  width="60" height="60" rx="6"/>
			<rect x="68"  y="68"  width="60" height="60" rx="6"/>
			<rect x="136" y="68"  width="60" height="60" rx="6"/>
			<rect x="204" y="68"  width="60" height="60" rx="6"/>
			<rect x="0"   y="136" width="60" height="60" rx="6"/>
			<rect x="68"  y="136" width="60" height="60" rx="6"/>
			<rect x="136" y="136" width="60" height="60" rx="6"/>
			<rect x="204" y="136" width="60" height="60" rx="6"/>
			<rect x="0"   y="204" width="60" height="60" rx="6"/>
			<rect x="68"  y="204" width="60" height="60" rx="6"/>
			<rect x="136" y="204" width="60" height="60" rx="6"/>
			<rect x="204" y="204" width="60" height="60" rx="6"/>
		</g>
		<g fill="#f43f5e">
			<rect x="68"  y="68"  width="60" height="60" rx="6"/>
		</g>
		<text x="98" y="106" fill="#f4f4f5" font-family="system-ui, -apple-system, sans-serif" font-weight="700" font-size="38" text-anchor="middle">A</text>
		<g fill="#f43f5e">
			<rect x="204" y="68" width="60" height="60" rx="6"/>
		</g>
		<text x="234" y="106" fill="#f4f4f5" font-family="system-ui, -apple-system, sans-serif" font-weight="700" font-size="38" text-anchor="middle">A</text>
	</g>
	<g fill="#ffffff" font-family="system-ui, -apple-system, 'Segoe UI', sans-serif" text-anchor="middle">
		<text x="200" y="30" font-size="32" font-weight="800" letter-spacing="-0.02em">Memory Match</text>
		<text x="200" y="380" font-size="14" font-weight="500" opacity="0.7">Flip two. Match pairs.</text>
	</g>
</svg>
